<?xml version="1.0" encoding="UTF-8"?>
<svg id="Layer_2" data-name="Layer 2" xmlns="http://www.w3.org/2000/svg" viewBox="0 0 425.27 126.44">
  <defs>
    <style>
      .cls-1 {
        fill: #e64257;
      }
    </style>
  </defs>
  <g id="Layer_1-2" data-name="Layer 1">
    <g>
      <path class="cls-1" d="M45.83,91.85c-11.66,0-23.32-4.59-32.36-13.5C-4.49,60.4-4.49,31.58,13.46,13.63,22.5,4.59,34.17.13,45.83.13s23.45,4.46,32.36,13.5l-11.92,11.92c-5.63-5.63-12.97-8.52-20.44-8.52s-14.81,2.88-20.44,8.52c-11.27,11.27-11.27,29.61,0,40.88,5.63,5.63,12.97,8.39,20.44,8.39,5.37,0,10.61-1.44,15.33-4.32v-15.99h-15.33v-17.03h32.36v40.88c-8.91,8.91-20.7,13.5-32.36,13.5Z"/>
      <path class="cls-1" d="M98.37,0c4.72,0,8.52,3.8,8.52,8.52s-3.8,8.52-8.52,8.52-8.52-3.8-8.52-8.52,3.8-8.52,8.52-8.52ZM89.85,91.85V22.41h17.03v69.44h-17.03Z"/>
      <path class="cls-1" d="M118.55,30.92h42.45v17.03h-42.45v-17.03ZM126.28,30.92C126.28,8.78,135.84.13,154.32.13h16.51v17.03h-16.51c-8.12,0-11.01,3.93-11.01,13.76v60.93h-17.03V30.92Z"/>
      <path class="cls-1" d="M182.45,39.44h-10.35v-17.03h10.35V.13h17.03v22.27h11.14v17.03h-11.14v21.62c0,9.83,2.88,13.76,11.01,13.76v17.03c-18.48,0-28.04-8.65-28.04-30.79v-21.62Z"/>
      <path class="cls-1" d="M270.01,57.13c0-9.83-7.86-17.69-17.69-17.69s-17.69,7.86-17.69,17.69,7.86,17.69,17.69,17.69h9.83v17.03h-9.83c-19.13,0-34.72-15.59-34.72-34.72s15.59-34.72,34.72-34.72,34.72,15.59,34.72,34.72v34.72h-17.03v-34.72Z"/>
      <path class="cls-1" d="M318.22,65.77c-29.48,0-29.61-43.11,0-43.11h34.85v17.03h-34.85c-6.29,0-6.03,9.04,0,9.04h16.64c29.61,0,29.48,43.11,0,43.11h-36.16v-17.03h36.16c6.03,0,6.29-9.04,0-9.04h-16.64Z"/>
      <path class="cls-1" d="M399.33,48.22v-25.81h17.03v25.81c0,5.9-1.97,11.27-5.24,15.59,8.65,6.29,14.15,16.51,14.15,27.91,0,19.13-15.59,34.72-34.72,34.72s-34.72-15.59-34.72-34.72h17.03c0,9.83,7.86,17.69,17.69,17.69s17.69-7.86,17.69-17.69-7.86-17.69-17.69-17.69c-14.28,0-25.81-11.53-25.81-25.81v-25.81h17.03v25.81c0,4.85,3.93,8.78,8.78,8.78s8.78-3.93,8.78-8.78Z"/>
    </g>
  </g>
</svg>